<mxfile host="app.diagrams.net" modified="2024-05-23T04:47:34.804Z" agent="Mozilla/5.0 (Windows NT 10.0; Win64; x64) AppleWebKit/537.36 (KHTML, like Gecko) Chrome/124.0.0.0 Safari/537.36" version="24.4.6" etag="_rJtctaRBN8FdciPFm7G" type="device">
  <diagram id="5aO_CssbafdQuZeOlMkM" name="Trang-1">
    <mxGraphModel dx="1500" dy="757" grid="1" gridSize="10" guides="1" tooltips="1" connect="1" arrows="1" fold="1" page="1" pageScale="1" pageWidth="827" pageHeight="1169" math="0" shadow="0">
      <root>
        <mxCell id="0" />
        <mxCell id="1" parent="0" />
        <mxCell id="Gm2cfhaUzWArTBKf3nsj-56" value="AWS Cloud" style="points=[[0,0],[0.25,0],[0.5,0],[0.75,0],[1,0],[1,0.25],[1,0.5],[1,0.75],[1,1],[0.75,1],[0.5,1],[0.25,1],[0,1],[0,0.75],[0,0.5],[0,0.25]];outlineConnect=0;gradientColor=none;html=1;whiteSpace=wrap;fontSize=12;fontStyle=0;container=1;pointerEvents=0;collapsible=0;recursiveResize=0;shape=mxgraph.aws4.group;grIcon=mxgraph.aws4.group_aws_cloud_alt;strokeColor=#232F3E;fillColor=none;verticalAlign=top;align=left;spacingLeft=30;fontColor=#232F3E;dashed=0;" vertex="1" parent="1">
          <mxGeometry x="120" y="310" width="690" height="640" as="geometry" />
        </mxCell>
        <mxCell id="Gm2cfhaUzWArTBKf3nsj-51" value="Region" style="points=[[0,0],[0.25,0],[0.5,0],[0.75,0],[1,0],[1,0.25],[1,0.5],[1,0.75],[1,1],[0.75,1],[0.5,1],[0.25,1],[0,1],[0,0.75],[0,0.5],[0,0.25]];outlineConnect=0;gradientColor=none;html=1;whiteSpace=wrap;fontSize=12;fontStyle=0;container=1;pointerEvents=0;collapsible=0;recursiveResize=0;shape=mxgraph.aws4.group;grIcon=mxgraph.aws4.group_region;strokeColor=#00A4A6;fillColor=none;verticalAlign=top;align=left;spacingLeft=30;fontColor=#147EBA;dashed=1;" vertex="1" parent="1">
          <mxGeometry x="150" y="360" width="652" height="570" as="geometry" />
        </mxCell>
        <mxCell id="Gm2cfhaUzWArTBKf3nsj-53" value="" style="sketch=0;points=[[0,0,0],[0.25,0,0],[0.5,0,0],[0.75,0,0],[1,0,0],[0,1,0],[0.25,1,0],[0.5,1,0],[0.75,1,0],[1,1,0],[0,0.25,0],[0,0.5,0],[0,0.75,0],[1,0.25,0],[1,0.5,0],[1,0.75,0]];outlineConnect=0;fontColor=#232F3E;fillColor=#DD344C;strokeColor=#ffffff;dashed=0;verticalLabelPosition=bottom;verticalAlign=top;align=center;html=1;fontSize=12;fontStyle=0;aspect=fixed;shape=mxgraph.aws4.resourceIcon;resIcon=mxgraph.aws4.secrets_manager;" vertex="1" parent="Gm2cfhaUzWArTBKf3nsj-51">
          <mxGeometry x="20" y="285" width="48" height="48" as="geometry" />
        </mxCell>
        <mxCell id="Gm2cfhaUzWArTBKf3nsj-49" value="VPC" style="sketch=0;outlineConnect=0;gradientColor=none;html=1;whiteSpace=wrap;fontSize=12;fontStyle=0;shape=mxgraph.aws4.group;grIcon=mxgraph.aws4.group_vpc;strokeColor=#00994D;fillColor=none;verticalAlign=top;align=left;spacingLeft=30;fontColor=#879196;dashed=0;" vertex="1" parent="1">
          <mxGeometry x="252" y="370" width="540" height="540" as="geometry" />
        </mxCell>
        <mxCell id="Gm2cfhaUzWArTBKf3nsj-42" value="Availability Zone 1" style="fillColor=none;strokeColor=#147EBA;dashed=1;verticalAlign=top;fontStyle=0;fontColor=#147EBA;whiteSpace=wrap;html=1;" vertex="1" parent="1">
          <mxGeometry x="272" y="500" width="250" height="370" as="geometry" />
        </mxCell>
        <mxCell id="Gm2cfhaUzWArTBKf3nsj-1" value="" style="points=[[0.35,0,0],[0.98,0.51,0],[1,0.71,0],[0.67,1,0],[0,0.795,0],[0,0.65,0]];verticalLabelPosition=bottom;sketch=0;html=1;verticalAlign=top;aspect=fixed;align=center;pointerEvents=1;shape=mxgraph.cisco19.user;fillColor=#005073;strokeColor=none;shadow=0;" vertex="1" parent="1">
          <mxGeometry x="40" y="560" width="60" height="60" as="geometry" />
        </mxCell>
        <mxCell id="Gm2cfhaUzWArTBKf3nsj-2" value="Client" style="text;html=1;align=center;verticalAlign=middle;whiteSpace=wrap;rounded=0;" vertex="1" parent="1">
          <mxGeometry x="30" y="625" width="60" height="30" as="geometry" />
        </mxCell>
        <mxCell id="Gm2cfhaUzWArTBKf3nsj-20" value="Private subnet A" style="points=[[0,0],[0.25,0],[0.5,0],[0.75,0],[1,0],[1,0.25],[1,0.5],[1,0.75],[1,1],[0.75,1],[0.5,1],[0.25,1],[0,1],[0,0.75],[0,0.5],[0,0.25]];outlineConnect=0;gradientColor=none;html=1;whiteSpace=wrap;fontSize=12;fontStyle=0;container=1;pointerEvents=0;collapsible=0;recursiveResize=0;shape=mxgraph.aws4.group;grIcon=mxgraph.aws4.group_security_group;grStroke=0;strokeColor=#00A4A6;fillColor=#E6F6F7;verticalAlign=top;align=left;spacingLeft=30;fontColor=#147EBA;dashed=0;" vertex="1" parent="1">
          <mxGeometry x="292" y="690" width="160" height="160" as="geometry" />
        </mxCell>
        <mxCell id="Gm2cfhaUzWArTBKf3nsj-13" value="" style="sketch=0;outlineConnect=0;fontColor=#232F3E;gradientColor=none;fillColor=#C925D1;strokeColor=none;dashed=1;verticalLabelPosition=bottom;verticalAlign=top;align=center;html=1;fontSize=12;fontStyle=0;aspect=fixed;pointerEvents=1;shape=mxgraph.aws4.rds_instance;" vertex="1" parent="Gm2cfhaUzWArTBKf3nsj-20">
          <mxGeometry x="53" y="56" width="48" height="48" as="geometry" />
        </mxCell>
        <mxCell id="Gm2cfhaUzWArTBKf3nsj-25" value="Public subnet A" style="points=[[0,0],[0.25,0],[0.5,0],[0.75,0],[1,0],[1,0.25],[1,0.5],[1,0.75],[1,1],[0.75,1],[0.5,1],[0.25,1],[0,1],[0,0.75],[0,0.5],[0,0.25]];outlineConnect=0;gradientColor=none;html=1;whiteSpace=wrap;fontSize=12;fontStyle=0;container=1;pointerEvents=0;collapsible=0;recursiveResize=0;shape=mxgraph.aws4.group;grIcon=mxgraph.aws4.group_security_group;grStroke=0;strokeColor=#7AA116;fillColor=#F2F6E8;verticalAlign=top;align=left;spacingLeft=30;fontColor=#248814;dashed=0;" vertex="1" parent="1">
          <mxGeometry x="292" y="530" width="160" height="160" as="geometry" />
        </mxCell>
        <mxCell id="Gm2cfhaUzWArTBKf3nsj-12" value="Amazon EC2" style="text;html=1;align=center;verticalAlign=middle;whiteSpace=wrap;rounded=0;" vertex="1" parent="Gm2cfhaUzWArTBKf3nsj-25">
          <mxGeometry x="39" y="110" width="76" height="30" as="geometry" />
        </mxCell>
        <mxCell id="Gm2cfhaUzWArTBKf3nsj-10" value="" style="points=[[0,0,0],[0.25,0,0],[0.5,0,0],[0.75,0,0],[1,0,0],[0,1,0],[0.25,1,0],[0.5,1,0],[0.75,1,0],[1,1,0],[0,0.25,0],[0,0.5,0],[0,0.75,0],[1,0.25,0],[1,0.5,0],[1,0.75,0]];outlineConnect=0;fontColor=#232F3E;fillColor=#ED7100;strokeColor=#ffffff;dashed=0;verticalLabelPosition=bottom;verticalAlign=top;align=center;html=1;fontSize=12;fontStyle=0;aspect=fixed;shape=mxgraph.aws4.resourceIcon;resIcon=mxgraph.aws4.ec2;shadow=0;" vertex="1" parent="Gm2cfhaUzWArTBKf3nsj-25">
          <mxGeometry x="53" y="56" width="48" height="48" as="geometry" />
        </mxCell>
        <mxCell id="Gm2cfhaUzWArTBKf3nsj-29" value="Private subnet A" style="points=[[0,0],[0.25,0],[0.5,0],[0.75,0],[1,0],[1,0.25],[1,0.5],[1,0.75],[1,1],[0.75,1],[0.5,1],[0.25,1],[0,1],[0,0.75],[0,0.5],[0,0.25]];outlineConnect=0;gradientColor=none;html=1;whiteSpace=wrap;fontSize=12;fontStyle=0;container=1;pointerEvents=0;collapsible=0;recursiveResize=0;shape=mxgraph.aws4.group;grIcon=mxgraph.aws4.group_security_group;grStroke=0;strokeColor=#00A4A6;fillColor=#E6F6F7;verticalAlign=top;align=left;spacingLeft=30;fontColor=#147EBA;dashed=0;" vertex="1" parent="1">
          <mxGeometry x="592" y="690" width="160" height="160" as="geometry" />
        </mxCell>
        <mxCell id="Gm2cfhaUzWArTBKf3nsj-30" value="" style="sketch=0;outlineConnect=0;fontColor=#232F3E;gradientColor=none;fillColor=#C925D1;strokeColor=none;dashed=0;verticalLabelPosition=bottom;verticalAlign=top;align=center;html=1;fontSize=12;fontStyle=0;aspect=fixed;pointerEvents=1;shape=mxgraph.aws4.rds_instance;" vertex="1" parent="Gm2cfhaUzWArTBKf3nsj-29">
          <mxGeometry x="55" y="56" width="48" height="48" as="geometry" />
        </mxCell>
        <mxCell id="Gm2cfhaUzWArTBKf3nsj-31" value="Public subnet A" style="points=[[0,0],[0.25,0],[0.5,0],[0.75,0],[1,0],[1,0.25],[1,0.5],[1,0.75],[1,1],[0.75,1],[0.5,1],[0.25,1],[0,1],[0,0.75],[0,0.5],[0,0.25]];outlineConnect=0;gradientColor=none;html=1;whiteSpace=wrap;fontSize=12;fontStyle=0;container=1;pointerEvents=0;collapsible=0;recursiveResize=0;shape=mxgraph.aws4.group;grIcon=mxgraph.aws4.group_security_group;grStroke=0;strokeColor=#7AA116;fillColor=#F2F6E8;verticalAlign=top;align=left;spacingLeft=30;fontColor=#248814;dashed=0;" vertex="1" parent="1">
          <mxGeometry x="592" y="530" width="160" height="160" as="geometry" />
        </mxCell>
        <mxCell id="Gm2cfhaUzWArTBKf3nsj-43" value="Availability Zone 2" style="fillColor=none;strokeColor=#147EBA;dashed=1;verticalAlign=top;fontStyle=0;fontColor=#147EBA;whiteSpace=wrap;html=1;" vertex="1" parent="Gm2cfhaUzWArTBKf3nsj-31">
          <mxGeometry x="-70" y="-30" width="250" height="370" as="geometry" />
        </mxCell>
        <mxCell id="Gm2cfhaUzWArTBKf3nsj-32" value="Amazon EC2" style="text;html=1;align=center;verticalAlign=middle;whiteSpace=wrap;rounded=0;" vertex="1" parent="Gm2cfhaUzWArTBKf3nsj-31">
          <mxGeometry x="39" y="110" width="76" height="30" as="geometry" />
        </mxCell>
        <mxCell id="Gm2cfhaUzWArTBKf3nsj-33" value="" style="points=[[0,0,0],[0.25,0,0],[0.5,0,0],[0.75,0,0],[1,0,0],[0,1,0],[0.25,1,0],[0.5,1,0],[0.75,1,0],[1,1,0],[0,0.25,0],[0,0.5,0],[0,0.75,0],[1,0.25,0],[1,0.5,0],[1,0.75,0]];outlineConnect=0;fontColor=#232F3E;fillColor=#ED7100;strokeColor=#ffffff;dashed=0;verticalLabelPosition=bottom;verticalAlign=top;align=center;html=1;fontSize=12;fontStyle=0;aspect=fixed;shape=mxgraph.aws4.resourceIcon;resIcon=mxgraph.aws4.ec2;shadow=0;" vertex="1" parent="Gm2cfhaUzWArTBKf3nsj-31">
          <mxGeometry x="53" y="56" width="48" height="48" as="geometry" />
        </mxCell>
        <mxCell id="Gm2cfhaUzWArTBKf3nsj-15" value="" style="sketch=0;outlineConnect=0;fontColor=#232F3E;gradientColor=none;fillColor=#ED7100;strokeColor=none;dashed=0;verticalLabelPosition=bottom;verticalAlign=top;align=center;html=1;fontSize=12;fontStyle=0;aspect=fixed;pointerEvents=1;shape=mxgraph.aws4.auto_scaling2;" vertex="1" parent="1">
          <mxGeometry x="492" y="610" width="59" height="59" as="geometry" />
        </mxCell>
        <mxCell id="Gm2cfhaUzWArTBKf3nsj-35" value="Auto scaling" style="text;html=1;align=center;verticalAlign=middle;whiteSpace=wrap;rounded=0;" vertex="1" parent="1">
          <mxGeometry x="483.75" y="680" width="85.5" height="30" as="geometry" />
        </mxCell>
        <mxCell id="Gm2cfhaUzWArTBKf3nsj-36" value="" style="sketch=0;outlineConnect=0;fontColor=#232F3E;gradientColor=none;fillColor=#8C4FFF;strokeColor=none;dashed=0;verticalLabelPosition=bottom;verticalAlign=top;align=center;html=1;fontSize=12;fontStyle=0;aspect=fixed;pointerEvents=1;shape=mxgraph.aws4.application_load_balancer;" vertex="1" parent="1">
          <mxGeometry x="499.5" y="380" width="48" height="48" as="geometry" />
        </mxCell>
        <mxCell id="Gm2cfhaUzWArTBKf3nsj-37" value="Application Load Balancer" style="text;html=1;align=center;verticalAlign=middle;whiteSpace=wrap;rounded=0;" vertex="1" parent="1">
          <mxGeometry x="455" y="440" width="137" height="30" as="geometry" />
        </mxCell>
        <mxCell id="Gm2cfhaUzWArTBKf3nsj-40" value="" style="edgeStyle=orthogonalEdgeStyle;htmDepartman barl=1;endArrow=open;elbow=vertical;startArrow=open;startFill=0;endFill=0;strokeColor=#545B64;rounded=0;exitX=0.5;exitY=1;exitDx=0;exitDy=0;exitPerimeter=0;dashed=1;strokeWidth=2;" edge="1" parent="1" source="Gm2cfhaUzWArTBKf3nsj-10" target="Gm2cfhaUzWArTBKf3nsj-13">
          <mxGeometry width="100" relative="1" as="geometry">
            <mxPoint x="442" y="720" as="sourcePoint" />
            <mxPoint x="542" y="720" as="targetPoint" />
          </mxGeometry>
        </mxCell>
        <mxCell id="Gm2cfhaUzWArTBKf3nsj-41" value="" style="edgeStyle=orthogonalEdgeStyle;htmDepartman barl=1;endArrow=open;elbow=vertical;startArrow=open;startFill=0;endFill=0;strokeColor=#545B64;rounded=0;entryX=0;entryY=0.5;entryDx=0;entryDy=0;entryPerimeter=0;dashed=1;strokeWidth=2;" edge="1" parent="1" source="Gm2cfhaUzWArTBKf3nsj-13" target="Gm2cfhaUzWArTBKf3nsj-33">
          <mxGeometry width="100" relative="1" as="geometry">
            <mxPoint x="442" y="720" as="sourcePoint" />
            <mxPoint x="542" y="720" as="targetPoint" />
            <Array as="points">
              <mxPoint x="542" y="770" />
              <mxPoint x="542" y="610" />
            </Array>
          </mxGeometry>
        </mxCell>
        <mxCell id="Gm2cfhaUzWArTBKf3nsj-46" style="edgeStyle=orthogonalEdgeStyle;rounded=0;orthogonalLoop=1;jettySize=auto;html=1;fillColor=#6d8764;strokeColor=#3399FF;" edge="1" parent="1">
          <mxGeometry relative="1" as="geometry">
            <mxPoint x="499.5" y="404.000545442149" as="targetPoint" />
            <mxPoint x="369" y="590" as="sourcePoint" />
            <Array as="points">
              <mxPoint x="369" y="404" />
            </Array>
          </mxGeometry>
        </mxCell>
        <mxCell id="Gm2cfhaUzWArTBKf3nsj-48" style="edgeStyle=orthogonalEdgeStyle;rounded=0;orthogonalLoop=1;jettySize=auto;html=1;exitX=0.5;exitY=0;exitDx=0;exitDy=0;exitPerimeter=0;fillColor=#6d8764;strokeColor=#3399FF;" edge="1" parent="1" source="Gm2cfhaUzWArTBKf3nsj-33" target="Gm2cfhaUzWArTBKf3nsj-36">
          <mxGeometry relative="1" as="geometry">
            <Array as="points">
              <mxPoint x="669" y="404" />
            </Array>
          </mxGeometry>
        </mxCell>
        <mxCell id="Gm2cfhaUzWArTBKf3nsj-54" style="edgeStyle=orthogonalEdgeStyle;rounded=0;orthogonalLoop=1;jettySize=auto;html=1;exitX=0;exitY=0.5;exitDx=0;exitDy=0;exitPerimeter=0;strokeColor=#3399FF;" edge="1" parent="1" source="Gm2cfhaUzWArTBKf3nsj-10" target="Gm2cfhaUzWArTBKf3nsj-53">
          <mxGeometry relative="1" as="geometry" />
        </mxCell>
        <mxCell id="Gm2cfhaUzWArTBKf3nsj-55" value="Internet Gateway" style="sketch=0;outlineConnect=0;fontColor=#232F3E;gradientColor=none;fillColor=#8C4FFF;strokeColor=none;dashed=0;verticalLabelPosition=bottom;verticalAlign=top;align=center;html=1;fontSize=12;fontStyle=0;aspect=fixed;pointerEvents=1;shape=mxgraph.aws4.internet_gateway;" vertex="1" parent="1">
          <mxGeometry x="499.5" y="280" width="48" height="48" as="geometry" />
        </mxCell>
        <mxCell id="Gm2cfhaUzWArTBKf3nsj-60" value="" style="edgeStyle=orthogonalEdgeStyle;html=1;endArrow=block;elbow=vertical;startArrow=block;startFill=1;endFill=1;strokeColor=#006EAF;rounded=0;fillColor=#1ba1e2;" edge="1" parent="1" source="Gm2cfhaUzWArTBKf3nsj-55" target="Gm2cfhaUzWArTBKf3nsj-36">
          <mxGeometry width="100" relative="1" as="geometry">
            <mxPoint x="550" y="370" as="sourcePoint" />
            <mxPoint x="650" y="370" as="targetPoint" />
          </mxGeometry>
        </mxCell>
        <mxCell id="Gm2cfhaUzWArTBKf3nsj-61" value="" style="sketch=0;outlineConnect=0;fontColor=#232F3E;gradientColor=none;fillColor=#232F3D;strokeColor=none;dashed=0;verticalLabelPosition=bottom;verticalAlign=top;align=center;html=1;fontSize=12;fontStyle=0;aspect=fixed;pointerEvents=1;shape=mxgraph.aws4.internet_alt2;" vertex="1" parent="1">
          <mxGeometry x="32" y="270" width="58" height="58" as="geometry" />
        </mxCell>
        <mxCell id="Gm2cfhaUzWArTBKf3nsj-62" value="" style="edgeStyle=orthogonalEdgeStyle;html=1;endArrow=openThin;elbow=vertical;startArrow=none;endFill=0;strokeColor=#006EAF;rounded=0;exitX=0.35;exitY=0;exitDx=0;exitDy=0;exitPerimeter=0;fillColor=#1ba1e2;" edge="1" parent="1" source="Gm2cfhaUzWArTBKf3nsj-1" target="Gm2cfhaUzWArTBKf3nsj-61">
          <mxGeometry width="100" relative="1" as="geometry">
            <mxPoint x="60" y="540" as="sourcePoint" />
            <mxPoint x="620" y="390" as="targetPoint" />
          </mxGeometry>
        </mxCell>
        <mxCell id="Gm2cfhaUzWArTBKf3nsj-63" value="" style="edgeStyle=orthogonalEdgeStyle;html=1;endArrow=openThin;elbow=vertical;startArrow=none;endFill=0;strokeColor=#006EAF;rounded=0;fillColor=#1ba1e2;" edge="1" parent="1" source="Gm2cfhaUzWArTBKf3nsj-61" target="Gm2cfhaUzWArTBKf3nsj-55">
          <mxGeometry width="100" relative="1" as="geometry">
            <mxPoint x="90" y="279.8417251679417" as="sourcePoint" />
            <mxPoint x="528.5" y="275" as="targetPoint" />
            <Array as="points">
              <mxPoint x="320" y="300" />
              <mxPoint x="320" y="300" />
            </Array>
          </mxGeometry>
        </mxCell>
      </root>
    </mxGraphModel>
  </diagram>
</mxfile>
